<?xml version="1.0" encoding="utf-8"?>
<!-- Generator: Adobe Illustrator 27.0.1, SVG Export Plug-In . SVG Version: 6.00 Build 0)  -->
<svg version="1.1" xmlns="http://www.w3.org/2000/svg" xmlns:xlink="http://www.w3.org/1999/xlink" x="0px" y="0px"
	 viewBox="0 0 841.9 595.3" style="enable-background:new 0 0 841.9 595.3;" xml:space="preserve">
<g id="K">
	<polygon points="175,312.9 175,297.5 223.8,382.8 184,382.8 147,315.7 94.1,382.9 54.1,382.9 191.3,208.9 231.3,208.9 165.1,289.9 
		325.3,208.9 376.9,208.9 	"/>
</g>
<g id="R">
	<path d="M258,247.3l-92.7,47.2v21.2h94.9l40.1,67.1h37.7l-40.6-67.1c38,0,56.4-19.2,64.3-30.2c18.5-25.8,0.4-38.2-29.6-38.2H258z
		 M334.7,281.8c-5.5,6.8-10.7,12.2-30.2,12.2H204l56.1-28.5h60.5C336.9,265.1,342.2,272.4,334.7,281.8z"/>
</g>
<g id="I">
	<path d="M421.2,209h38.6L353,344.2h-38.6L421.2,209z"/>
</g>
<g id="M">
	<path d="M444.4,247.7h57.4l-40.1,109.6h-7.1L586,247.7h58.1L537.4,382.8h-38.3l87.2-111.1h7.1L458.4,382.8h-38l39.9-111.1h3.3
		l-88.2,111.1h-37.6L444.4,247.7z"/>
</g>
<g id="O">
	<path d="M605.5,383.7c-7.5-1.8-13.8-4.3-18.9-7.5c-5-3.2-8.8-7.1-11.3-11.6c-2.5-4.5-3.7-9.5-3.6-15.1s1.5-11.5,4.1-17.8
		c2.7-6.3,6.6-12.9,11.8-19.8l0.4-0.5c7.9-10.3,17.2-19.6,27.8-27.8c10.6-8.2,22.1-15.2,34.4-20.9c12.4-5.7,25.4-10.1,39-13.2
		c13.7-3.1,27.4-4.6,41.4-4.6c10,0,18.7,0.9,26.3,2.7c7.6,1.8,13.9,4.3,18.9,7.5c5,3.2,8.8,7.1,11.3,11.6s3.7,9.5,3.6,15
		c-0.1,5.5-1.5,11.5-4.2,17.8c-2.7,6.4-6.6,13-11.8,19.8l-0.4,0.5c-7.9,10.4-17.1,19.6-27.7,27.8c-10.6,8.2-22.1,15.1-34.4,20.8
		c-12.3,5.7-25.3,10.1-39,13.2c-13.7,3.1-27.4,4.6-41.4,4.6C621.8,386.4,613,385.5,605.5,383.7z M663.6,364.3
		c5.9-1,11.7-2.4,17.4-4.2c5.7-1.8,11.2-4.1,16.6-6.8c5.4-2.7,10.6-5.8,15.6-9.3c5-3.5,9.8-7.4,14.3-11.7c4.5-4.3,8.7-8.9,12.4-13.9
		l0.4-0.6c3.8-4.9,6.8-9.6,9-14.1c2.2-4.5,3.5-8.7,4-12.6c0.5-3.9,0.1-7.4-1-10.5c-1.2-3.1-3.3-5.8-6.3-8c-3-2.2-7-3.9-11.9-5.1
		c-4.9-1.2-10.7-1.8-17.5-1.8c-6,0-12,0.5-17.9,1.5c-5.9,1-11.8,2.4-17.6,4.3c-5.8,1.9-11.4,4.2-16.7,6.9
		c-5.4,2.7-10.5,5.8-15.6,9.3c-5,3.5-9.8,7.4-14.3,11.7c-4.5,4.3-8.7,8.9-12.5,13.9l-0.4,0.5c-3.7,4.9-6.7,9.7-8.8,14.2
		c-2.2,4.5-3.5,8.7-4.1,12.6c-0.5,3.8-0.2,7.3,1,10.4c1.2,3.1,3.3,5.8,6.3,7.9c3,2.2,7,3.9,11.9,5.1c4.9,1.2,10.8,1.8,17.6,1.8
		C651.7,365.7,657.7,365.2,663.6,364.3z"/>
</g>
</svg>
