<?xml version="1.0" encoding="utf-8"?>
<!-- Generator: Adobe Illustrator 27.0.1, SVG Export Plug-In . SVG Version: 6.00 Build 0)  -->
<svg version="1.1" xmlns="http://www.w3.org/2000/svg" xmlns:xlink="http://www.w3.org/1999/xlink" x="0px" y="0px"
	 viewBox="0 0 841.9 595.3" style="enable-background:new 0 0 841.9 595.3;" xml:space="preserve">
<g id="K">
	<polygon points="380.5,312.9 380.5,297.5 429.3,382.8 389.5,382.8 352.5,315.7 299.5,382.9 259.5,382.9 396.8,208.9 436.8,208.9 
		370.5,289.9 530.8,208.9 582.4,208.9 	"/>
</g>
<g id="R">
	<path d="M463.5,247.3l-92.7,47.2v21.2h94.9l40.1,67.1h37.7L503,315.7c38,0,56.4-19.2,64.3-30.2c18.5-25.8,0.4-38.2-29.6-38.2H463.5
		z M540.2,281.8c-5.5,6.8-10.7,12.2-30.2,12.2H409.5l56.1-28.5h60.5C542.4,265.1,547.7,272.4,540.2,281.8z"/>
</g>
<g id="I">
</g>
<g id="M">
</g>
<g id="O">
</g>
</svg>
